<svg width="837" height="216" viewBox="0 0 837 216" fill="none" xmlns="http://www.w3.org/2000/svg">
<path d="M141.914 41.0602L141.961 153.212C141.961 162.104 144.195 164.328 153.089 164.328H155.302C164.195 164.328 166.427 162.104 166.427 153.212V75.6297C166.427 47.8275 156.665 41.2323 141.914 41.0602Z" fill="#404041"/>
<path d="M100.702 58.578L40.2737 132.206C36.1144 137.399 33.6549 138.385 30.6946 138.385C26.5353 138.385 24.3159 135.917 24.3159 128.254V51.0082C24.3159 42.1163 22.117 39.8921 13.2582 39.8921H11.0577C2.21944 39.8921 0 42.1163 0 51.0082V129.742C0 154.701 9.57912 163.836 27.2556 163.836C39.0542 163.836 48.131 160.626 59.9295 146.291L119.839 73.3969C124.998 66.9787 127.697 65.9914 130.418 65.9914C130.824 65.9914 131.198 66.0325 131.55 66.1051V41.0832C120.109 41.5239 111.681 45.2156 100.702 58.578Z" fill="#E6007E"/>
<path d="M245.272 41.5025C243.331 41.2592 242.118 41.2592 240.419 41.2592C209.104 41.2592 194.541 57.0369 194.541 84.2246V153.405C194.541 162.143 196.726 164.328 205.464 164.328H208.619C217.358 164.328 219.542 162.143 219.542 153.405V85.9228C219.542 72.0865 223.427 64.5625 240.419 64.5625C242.118 64.5625 243.331 64.5625 245.272 64.8057C253.527 66.0189 255.469 64.5625 255.469 56.3087V52.9108C255.469 44.6586 253.527 42.4724 245.272 41.5025Z" fill="#404041"/>
<path d="M337.758 125.625C337.758 142.129 326.106 144.556 310.326 144.556C297.949 144.556 286.539 142.129 286.539 127.806C286.539 115.428 294.548 110.575 311.055 110.575H337.758V125.625ZM307.656 39.9356C294.548 39.9356 288.965 40.9071 283.384 41.877C276.585 43.0918 274.647 45.0332 274.647 52.3155V55.7149C274.647 62.9972 276.345 64.9386 283.624 63.4822C288.48 62.5107 297.221 61.2975 309.112 61.2975C326.347 61.2975 337.758 64.6954 337.758 79.748V91.6398H311.055C280.713 91.6398 261.539 101.107 261.539 128.293C261.539 154.026 279.255 165.676 310.812 165.676C346.737 165.676 362.518 153.541 362.518 126.838V79.748C362.518 49.4058 340.425 39.9356 307.656 39.9356Z" fill="#404041"/>
<path d="M463.981 85.0857C463.981 98.6788 458.883 107.176 436.795 107.176C414.46 107.176 408.879 98.922 408.879 85.0857V82.9026C408.879 70.2794 415.188 61.5407 436.795 61.5407C458.155 61.5407 463.981 70.5227 463.981 82.9026V85.0857ZM414.706 163.974C420.774 164.703 427.813 164.948 436.795 164.948C457.182 164.948 467.137 165.919 467.137 179.026C467.137 193.107 457.182 194.805 436.795 194.805C414.46 194.805 405.724 192.863 405.724 179.509C405.724 174.173 407.421 167.374 414.706 163.974ZM489.469 34.3546L487.284 32.1699C481.943 27.0723 479.275 27.0723 473.691 31.9251L459.855 43.82C452.087 40.9086 445.29 39.9371 436.795 39.9371C403.536 39.9371 383.877 55.4716 383.877 82.9026V85.0857C383.877 102.321 390.428 114.215 403.536 120.527C391.644 123.437 384.364 129.749 384.364 141.399C384.364 149.168 387.033 154.509 393.587 158.393C387.033 162.278 380.723 169.315 380.723 182.91C380.723 204.269 391.885 215.922 436.795 215.922C479.032 215.922 492.138 205.972 492.138 178.297C492.138 152.811 479.517 143.587 436.795 143.587C413.731 143.587 409.122 142.128 409.122 136.547C409.122 129.993 413.731 128.778 436.795 128.778C473.934 128.778 488.982 112.515 488.982 85.0857V82.9026C488.982 72.4641 486.314 64.6969 479.757 58.1428L489.71 47.4611C494.81 42.1218 494.81 39.4522 489.469 34.3546Z" fill="#404041"/>
<path d="M590.694 91.6398H533.894V85.5723C533.894 69.0647 543.846 61.5408 562.048 61.5408C580.254 61.5408 590.694 69.0647 590.694 85.5723V91.6398ZM562.777 39.9372C522.242 39.9372 508.893 62.269 508.893 92.6113V113.73C508.893 150.87 528.311 165.676 568.603 165.676C582.685 165.676 592.879 163.734 600.158 161.791C608.17 159.607 610.113 158.152 610.113 149.896V146.74C610.113 138.49 608.17 136.303 600.158 138.246C592.879 139.948 581.467 142.128 568.603 142.128C544.086 142.128 533.894 135.09 533.894 117.369V112.03H601.376C610.353 112.03 612.78 109.846 613.756 100.864C613.998 98.1939 614.238 95.2825 614.238 90.1834C614.238 56.9281 596.275 39.9372 562.777 39.9372Z" fill="#404041"/>
<path d="M159.632 25.798L149.171 25.8359C145.206 25.8501 141.951 22.6181 141.936 18.6547L141.898 8.19255C141.884 4.22916 145.116 0.973462 149.08 0.959245L159.542 0.921332C163.505 0.907115 166.761 4.13912 166.775 8.10251L166.813 18.5647C166.827 22.5281 163.597 25.7838 159.632 25.798Z" fill="#404041"/>
<path d="M745.071 54.2422H737.765C735.756 54.2422 734.111 52.5978 734.111 50.5884V43.2824C734.111 41.2715 735.756 39.6271 737.765 39.6271H745.071C747.08 39.6271 748.725 41.2715 748.725 43.2824V50.5884C748.725 52.5978 747.08 54.2422 745.071 54.2422Z" fill="#E6007E"/>
<path d="M723.151 54.2422H715.844C713.836 54.2422 712.191 52.5978 712.191 50.5884V43.2824C712.191 41.2715 713.836 39.6271 715.844 39.6271H723.151C725.16 39.6271 726.805 41.2715 726.805 43.2824V50.5884C726.805 52.5978 725.16 54.2422 723.151 54.2422Z" fill="#E6007E"/>
<path d="M701.227 54.2422H693.921C691.91 54.2422 690.268 52.5978 690.268 50.5884V43.2824C690.268 41.2715 691.91 39.6271 693.921 39.6271H701.227C703.238 39.6271 704.881 41.2715 704.881 43.2824V50.5884C704.881 52.5978 703.238 54.2422 701.227 54.2422Z" fill="#E6007E"/>
<path d="M723.151 76.2383H715.842C713.834 76.2383 712.189 74.5954 712.189 72.5845V65.2785C712.189 63.2692 713.834 61.6248 715.842 61.6248H723.151C725.159 61.6248 726.805 63.2692 726.805 65.2785V72.5845C726.805 74.5954 725.159 76.2383 723.151 76.2383Z" fill="#E6007E"/>
<path d="M701.227 76.2383H693.921C691.91 76.2383 690.268 74.5954 690.268 72.5845V65.2785C690.268 63.2692 691.91 61.6248 693.921 61.6248H701.227C703.238 61.6248 704.881 63.2692 704.881 65.2785V72.5845C704.881 74.5954 703.238 76.2383 701.227 76.2383Z" fill="#E6007E"/>
<path d="M701.227 98.1602H693.921C691.91 98.1602 690.268 96.5157 690.268 94.5064V87.2004C690.268 85.1911 691.91 83.5466 693.921 83.5466H701.227C703.238 83.5466 704.881 85.1911 704.881 87.2004V94.5064C704.881 96.5157 703.238 98.1602 701.227 98.1602Z" fill="#E6007E"/>
<path d="M781.607 83.5427H788.914C790.924 83.5427 792.57 85.1872 792.57 87.1965V94.5041C792.57 96.5134 790.924 98.1562 788.914 98.1562H781.607C779.599 98.1562 777.953 96.5134 777.953 94.5041V87.1965C777.953 85.1872 779.599 83.5427 781.607 83.5427Z" fill="#E6007E"/>
<path d="M701.227 120.082H693.921C691.91 120.082 690.268 118.438 690.268 116.428V109.122C690.268 107.111 691.91 105.467 693.921 105.467H701.227C703.238 105.467 704.881 107.111 704.881 109.122V116.428C704.881 118.438 703.238 120.082 701.227 120.082Z" fill="#E6007E"/>
<path d="M832.757 142.004H825.451C823.441 142.004 821.797 140.359 821.797 138.35V131.043C821.797 129.033 823.441 127.389 825.451 127.389H832.757C834.764 127.389 836.41 129.033 836.41 131.043V138.35C836.41 140.359 834.764 142.004 832.757 142.004Z" fill="#E6007E"/>
<path d="M701.227 163.926H693.921C691.91 163.926 690.268 162.283 690.268 160.272V152.966C690.268 150.955 691.91 149.312 693.921 149.312H701.227C703.238 149.312 704.881 150.955 704.881 152.966V160.272C704.881 162.283 703.238 163.926 701.227 163.926Z" fill="#E6007E"/>
<path d="M810.835 39.6271H759.683C757.674 39.6271 756.031 41.2715 756.031 43.2809V50.5884C756.031 52.5978 757.674 54.2406 759.683 54.2406L810.835 54.2422C812.843 54.2422 814.489 52.5978 814.489 50.5884V43.2809C814.489 41.2715 812.843 39.6271 810.835 39.6271Z" fill="#E6007E"/>
<path d="M766.993 83.545H715.842C713.834 83.545 712.189 85.1895 712.189 87.1988V94.5064C712.189 96.5157 713.834 98.157 715.842 98.157L766.993 98.1602C769.001 98.1602 770.647 96.5157 770.647 94.5064V87.1988C770.647 85.1895 769.001 83.545 766.993 83.545Z" fill="#E6007E"/>
<path d="M766.993 105.467H715.842C713.834 105.467 712.189 107.111 712.189 109.121V116.427C712.189 118.439 713.834 120.082 715.842 120.082H766.993C769.001 120.082 770.647 118.438 770.647 116.428V109.121C770.647 107.111 769.001 105.467 766.993 105.467Z" fill="#E6007E"/>
<path d="M745.071 127.389H693.922C691.911 127.389 690.27 129.033 690.27 131.043V138.349C690.27 140.359 691.911 142.004 693.922 142.004H745.071C747.081 142.004 748.725 140.359 748.725 138.349V131.043C748.725 129.033 747.081 127.389 745.071 127.389Z" fill="#E6007E"/>
<path d="M810.835 127.389H759.683C757.674 127.389 756.031 129.033 756.031 131.043V138.349C756.031 140.359 757.674 142.004 759.683 142.004H810.835C812.843 142.004 814.489 140.359 814.489 138.349V131.043C814.489 129.033 812.843 127.389 810.835 127.389Z" fill="#E6007E"/>
</svg>
